<svg id="Layer_3" enable-background="new 0 0 64 64" height="512" viewBox="0 0 64 64" width="512" xmlns="http://www.w3.org/2000/svg"><g><path d="m30 33h4c.553 0 1-.447 1-1v-2c0-1.654-1.346-3-3-3s-3 1.346-3 3v2c0 .553.447 1 1 1zm1-3c0-.552.448-1 1-1s1 .448 1 1v1h-2z"/><path d="m30 41h4c.553 0 1-.447 1-1v-2c0-1.654-1.346-3-3-3s-3 1.346-3 3v2c0 .553.447 1 1 1zm1-3c0-.552.448-1 1-1s1 .448 1 1v1h-2z"/><path d="m43.78 3h18.439v2.001h-18.439z" transform="matrix(.976 -.217 .217 .976 .393 11.581)"/><path d="m52 4.78h2.001v18.439h-2.001z" transform="matrix(.217 -.976 .976 .217 27.836 62.701)"/><path d="m10-5.22h2.001v18.439h-2.001z" transform="matrix(.217 -.976 .976 .217 4.709 13.87)"/><path d="m1.78 13h18.439v2.001h-18.439z" transform="matrix(.976 -.217 .217 .976 -2.773 2.717)"/><path d="m27 13h2v2h-2z"/><path d="m35 13h2v2h-2z"/><path d="m60.2 59.4c-2.406-1.807-5.995-1.806-8.399-.001l-.802.601c-1.164.874-2.714 1.141-4.129.829.077-.267.13-.543.13-.829v-4c0-1.345-.896-2.473-2.118-2.853l-4.722-31.163c1.579-.085 2.84-1.385 2.84-2.984 0-1.302-.839-2.402-2-2.816v-4.369c1.161-.414 2-1.514 2-2.816 0-1.654-1.346-3-3-3h-2.09c-.479-2.832-2.943-4.999-5.91-4.999s-5.431 2.167-5.91 5h-2.09c-1.654 0-3 1.346-3 3 0 1.302.839 2.402 2 2.816v4.369c-1.161.414-2 1.514-2 2.816 0 1.599 1.261 2.899 2.84 2.984l-4.722 31.164c-1.222.378-2.118 1.506-2.118 2.851v4c0 .286.053.562.13.83-1.415.311-2.965.045-4.13-.831l-.8-.599c-2.406-1.807-5.995-1.807-8.399 0l-2.4 1.8 1.199 1.6 2.401-1.8c1.717-1.289 4.28-1.29 5.999.001l.8.599c2.406 1.807 5.995 1.806 8.399.001l.802-.601c1.717-1.289 4.28-1.29 5.999.001l.8.599c2.406 1.807 5.995 1.806 8.399.001l.802-.601c1.717-1.289 4.28-1.29 5.999.001l.8.599c1.203.903 2.694 1.4 4.2 1.4s2.997-.497 4.199-1.399l.802-.601c1.717-1.289 4.28-1.289 5.999 0l2.4 1.8 1.199-1.6zm-22.059-37.4.303 2h-12.888l.303-2zm-12.888 4h13.493l3.485 23h-6.231v-2c0-2.206-1.794-4-4-4s-4 1.794-4 4v2h-6.232zm2.747 25v2h-6.838l.303-2zm2-4c0-1.103.897-2 2-2s2 .897 2 2v6h-4zm6 4h6.535l.303 2h-6.838zm-5-39v4h-6v-4zm2 0h6v4h-6zm-1-9c1.859 0 3.411 1.279 3.858 3h-7.716c.447-1.721 1.999-3 3.858-3zm-8 5h16c.552 0 1 .448 1 1s-.448 1-1 1h-16c-.552 0-1-.448-1-1s.448-1 1-1zm-1 11c0-.552.448-1 1-1h16c.552 0 1 .448 1 1s-.448 1-1 1h-16c-.552 0-1-.448-1-1zm12.801 40.399-.802.601c-1.717 1.289-4.28 1.29-5.999-.001l-.8-.599c-2.406-1.807-5.995-1.806-8.399-.001l-.801.6v-3.999c0-.552.448-1 1-1h24c.552 0 1 .448 1 1v3.999l-.8-.599c-2.406-1.806-5.995-1.805-8.399-.001z"/></g></svg>